<?xml version="1.0" standalone="no"?>
<!DOCTYPE svg PUBLIC "-//W3C//DTD SVG 20010904//EN"
 "http://www.w3.org/TR/2001/REC-SVG-20010904/DTD/svg10.dtd">
<svg version="1.0" xmlns="http://www.w3.org/2000/svg"
 width="722.000000pt" height="722.000000pt" viewBox="0 0 722.000000 722.000000"
 preserveAspectRatio="xMidYMid meet">
<metadata>
Created by potrace 1.11, written by Peter Selinger 2001-2013
</metadata>
<g transform="translate(0.000000,722.000000) scale(0.100000,-0.100000)"
fill="#000000" stroke="none">
<path d="M4509 7130 c0 -19 0 -482 -1 -1027 l0 -993 -22 -1 c-28 -1 -1856 -1
-1878 0 -17 1 -18 58 -20 999 l-3 997 -37 0 -38 1 0 -998 0 -998 -32 -1 c-18
0 -574 -1 -1235 -2 l-1203 0 0 -39 c0 -23 5 -38 13 -39 6 -1 561 -2 1232 -3
l1220 -1 0 -1060 0 -1060 -1211 0 -1211 0 -2 -40 -2 -41 1203 1 c662 0 1209
-1 1215 -3 10 -3 13 -290 13 -1388 l0 -1384 40 0 40 0 2 1387 3 1387 955 0
955 0 2 -1329 c1 -732 2 -1342 2 -1357 1 -26 4 -28 41 -28 l40 0 0 1358 0
1357 1274 0 1274 -1 0 41 1 40 -1274 0 -1275 0 0 1060 0 1061 1238 -1 c680 0
1245 1 1255 3 14 4 17 13 15 41 l-3 36 -1245 2 c-685 1 -1248 2 -1252 2 -5 1
-8 464 -8 1029 l0 1028 -40 0 c-39 0 -40 -1 -41 -36z m-3 -3162 c1 -582 -1
-1059 -5 -1059 -3 -1 -435 -2 -958 -3 l-953 -1 0 1060 0 1061 958 -1 957 0 1
-1057z"/>
<path d="M3539 4799 c-29 -10 -64 -18 -76 -18 -40 -2 -213 -62 -289 -101 -147
-76 -234 -158 -298 -279 -184 -350 -36 -796 314 -946 25 -11 64 -32 86 -47 23
-16 45 -28 49 -28 4 0 21 -6 38 -14 171 -77 437 -60 597 37 138 83 215 201
235 359 3 26 10 69 15 95 5 26 7 100 5 163 -11 320 -183 605 -458 760 -70 39
-138 45 -218 19z m182 -291 c76 -50 104 -80 159 -175 42 -70 95 -219 106 -295
20 -139 7 -288 -37 -403 -35 -93 -62 -132 -101 -139 -18 -3 -44 -8 -57 -11
-58 -11 -258 44 -385 107 -132 64 -218 133 -292 231 -72 97 -94 174 -97 350
-2 90 -1 96 36 167 21 40 64 109 95 151 l57 78 105 25 c58 14 137 29 175 34
l70 8 50 -42 c28 -23 80 -62 116 -86z"/>
<path d="M1485 6839 c-340 -84 -456 -135 -586 -255 -226 -212 -257 -605 -69
-880 62 -90 190 -194 270 -219 13 -4 46 -22 74 -40 46 -29 146 -72 186 -80
189 -38 364 -14 509 68 132 74 217 202 235 352 2 22 10 74 17 115 46 295 -98
650 -340 834 -134 101 -206 127 -296 105z m30 -214 c31 -25 85 -65 121 -89 72
-49 109 -91 161 -184 74 -132 111 -282 108 -437 -3 -116 -24 -207 -70 -299
l-40 -81 -55 -12 c-30 -7 -71 -10 -90 -7 -114 16 -303 81 -380 129 -22 14 -42
25 -46 25 -12 0 -90 64 -142 117 -109 111 -149 208 -155 382 -6 142 10 183
133 354 66 91 62 89 320 132 41 7 76 13 77 14 1 0 27 -19 58 -44z"/>
<path d="M5100 6774 c-52 -35 -96 -67 -97 -72 -1 -4 48 -35 110 -70 194 -108
401 -267 595 -454 l63 -61 -33 -35 c-18 -19 -84 -86 -146 -151 -473 -487 -498
-514 -507 -560 -6 -32 22 -54 61 -48 63 10 251 166 323 267 18 25 116 129 218
232 156 158 189 186 201 175 8 -6 42 -41 76 -77 33 -36 101 -105 151 -155 50
-49 128 -136 173 -192 129 -160 214 -203 308 -155 42 21 96 70 92 83 -3 6
-269 283 -560 582 -49 50 -88 93 -88 98 0 6 57 74 115 135 70 75 291 337 361
430 25 33 26 33 7 64 -21 36 -33 35 -130 -11 -55 -26 -71 -42 -144 -136 -45
-58 -123 -153 -173 -211 -50 -57 -103 -118 -117 -135 -32 -37 -23 -40 -135 63
-83 77 -235 203 -329 272 -98 72 -279 188 -292 187 -4 0 -51 -29 -103 -65z"/>
<path d="M430 2234 c-52 -35 -96 -67 -97 -72 -2 -4 27 -23 64 -42 64 -34 303
-185 313 -199 3 -4 25 -22 50 -41 92 -71 174 -143 268 -233 l73 -70 -40 -41
c-21 -23 -87 -90 -146 -151 -186 -191 -432 -449 -459 -481 -76 -93 -37 -156
63 -103 89 47 227 171 288 259 17 25 114 127 215 228 l184 183 70 -73 c38 -40
114 -118 169 -173 55 -55 112 -116 127 -135 104 -134 120 -152 174 -190 81
-57 174 -47 244 25 l34 35 -115 118 c-64 64 -161 164 -217 222 -55 58 -140
146 -189 196 -149 155 -137 139 -120 165 9 12 38 45 64 73 39 41 190 216 295
341 64 77 128 162 128 171 0 6 -10 20 -23 32 l-23 22 -68 -26 c-80 -31 -100
-50 -233 -219 -56 -72 -118 -148 -138 -170 -20 -22 -55 -61 -78 -87 -23 -27
-45 -48 -49 -48 -4 0 -17 10 -30 23 -130 127 -361 314 -508 411 -58 38 -116
77 -130 86 -50 34 -61 31 -160 -36z"/>
<path d="M5098 2233 c-54 -36 -95 -69 -93 -73 3 -4 46 -31 97 -60 148 -84 347
-225 453 -321 17 -15 41 -37 55 -49 14 -12 56 -51 93 -87 l68 -66 -48 -50
c-26 -28 -77 -80 -113 -117 -506 -519 -541 -559 -524 -605 8 -19 45 -29 76
-19 60 19 243 175 303 259 16 22 114 127 219 232 l190 193 170 -172 c93 -95
192 -201 219 -237 139 -181 236 -233 335 -182 44 23 99 78 88 88 -5 5 -108
111 -230 237 -121 126 -267 276 -323 334 -79 82 -99 108 -89 116 11 10 137
150 199 221 14 17 35 41 47 55 60 69 227 274 240 295 13 22 12 26 -10 50 -27
29 -33 28 -128 -17 -54 -25 -71 -41 -128 -116 -79 -105 -323 -392 -333 -392
-4 0 -16 8 -27 18 -201 181 -341 298 -434 362 -19 13 -37 27 -40 30 -10 12
-169 110 -178 110 -5 0 -15 7 -22 15 -7 8 -18 15 -24 14 -6 0 -55 -30 -108
-66z"/>
</g>
</svg>
